<?xml version="1.0" encoding="utf-8"?>
<!-- Generator: Adobe Illustrator 28.3.0, SVG Export Plug-In . SVG Version: 6.00 Build 0)  -->
<svg version="1.1" id="Layer_1" xmlns="http://www.w3.org/2000/svg" xmlns:xlink="http://www.w3.org/1999/xlink" x="0px" y="0px"
	 viewBox="0 0 750 100" style="enable-background:new 0 0 750 100;" xml:space="preserve">
<g>
	<path d="M10.31,57.73V31.92c0-7.27,3.62-10.9,10.86-10.9h16.05c7.24,0,10.86,3.63,10.86,10.9V57.8c0,6.39-2.88,9.91-8.65,10.56
		l4.64,9.04l-0.83,1.59h-6.02l-5.26-10.35h-10.8C13.93,68.63,10.31,65,10.31,57.73z M17.3,58.42c0,2.58,1.31,3.86,3.94,3.86h15.92
		c2.63,0,3.94-1.29,3.94-3.86V31.23c0-2.58-1.31-3.86-3.94-3.86H21.24c-2.63,0-3.94,1.29-3.94,3.86V58.42z"/>
	<path d="M58.61,58V32.61h6.71v26.08c0,2.71,1.36,4.07,4.08,4.07h12.66V32.61h6.71v36.02H69.2C62.14,68.63,58.61,65.09,58.61,58z"/>
	<path d="M108.3,68.63c-7.1,0-10.66-3.52-10.66-10.56s3.55-10.56,10.66-10.56h11.7v-5.04c0-2.67-1.34-4-4.01-4h-14.81v-3.52
		l3.18-2.35h11.76c7.06,0,10.59,3.52,10.59,10.56v25.46H108.3z M104.35,58.69c0,2.71,1.36,4.07,4.08,4.07h11.56v-10h-11.56
		c-2.72,0-4.08,1.36-4.08,4.07V58.69z"/>
	<path d="M137.22,68.63V32.61h19.58c7.06,0,10.59,3.52,10.59,10.56v25.46h-6.71V42.48c0-2.67-1.34-4-4.01-4h-12.73v30.15H137.22z"/>
	<path d="M177.64,58V21.02h6.71v11.59h12.8v5.87h-12.8v20.22c0,2.71,1.36,4.07,4.08,4.07h9.41v3.52l-3.18,2.35h-6.44
		C181.17,68.63,177.64,65.09,177.64,58z"/>
	<path d="M205.46,58V32.61h6.71v26.08c0,2.71,1.36,4.07,4.08,4.07h12.66V32.61h6.71v36.02h-19.58
		C208.99,68.63,205.46,65.09,205.46,58z"/>
	<path d="M246.42,68.63V32.61h41.04c7.06,0,10.59,3.52,10.59,10.56v25.46h-6.71V42.48c0-2.67-1.34-4-4.01-4h-11.7v30.15h-6.78V38.48
		h-15.71v30.15H246.42z"/>
	<path d="M325.18,57.73V31.92c0-7.27,3.62-10.9,10.86-10.9h19.24l3.53,2.76v3.59h-22.7c-2.63,0-3.94,1.29-3.94,3.86v27.19
		c0,2.58,1.31,3.86,3.94,3.86h22.7v3.59l-3.53,2.76h-19.24C328.8,68.63,325.18,65,325.18,57.73z"/>
	<path d="M367.11,58V43.17c0-7.04,3.53-10.56,10.59-10.56h9.69c7.06,0,10.59,3.52,10.59,10.56V58c0,7.08-3.53,10.63-10.59,10.63
		h-9.69C370.64,68.63,367.11,65.09,367.11,58z M373.82,58.69c0,2.71,1.36,4.07,4.08,4.07h9.34c2.67,0,4.01-1.36,4.01-4.07V42.48
		c0-2.67-1.34-4-4.01-4h-9.34c-2.72,0-4.08,1.33-4.08,4V58.69z"/>
	<path d="M416.94,68.63c-7.1,0-10.66-3.52-10.66-10.56s3.55-10.56,10.66-10.56h11.7v-5.04c0-2.67-1.34-4-4.01-4h-14.81v-3.52
		l3.18-2.35h11.76c7.06,0,10.59,3.52,10.59,10.56v25.46H416.94z M412.99,58.69c0,2.71,1.36,4.07,4.08,4.07h11.56v-10h-11.56
		c-2.72,0-4.08,1.36-4.08,4.07V58.69z"/>
	<path d="M444.48,66.28v-3.52h15.99c2.72,0,4.08-1.38,4.08-4.14c0-2.85-1.11-4.46-3.32-4.83l-7.96-1.31
		c-5.86-1.01-8.79-4.23-8.79-9.66c0-6.81,3.55-10.21,10.66-10.21h11.28l3.18,2.35v3.52h-14.32c-2.77,0-4.15,1.38-4.15,4.14
		c0,2.58,1.15,4.07,3.46,4.49l8.03,1.31c5.77,0.97,8.65,4.28,8.65,9.94c0,6.85-3.58,10.28-10.73,10.28h-12.87L444.48,66.28z"/>
	<path d="M480.33,58V21.02h6.71v11.59h12.8v5.87h-12.8v20.22c0,2.71,1.36,4.07,4.08,4.07h9.41v3.52l-3.18,2.35h-6.44
		C483.86,68.63,480.33,65.09,480.33,58z"/>
	<path d="M525.03,57.73V31.92c0-7.27,3.62-10.9,10.87-10.9h19.24l3.53,2.76v3.59h-22.7c-2.63,0-3.94,1.29-3.94,3.86v27.19
		c0,2.58,1.31,3.86,3.94,3.86h22.7v3.59l-3.53,2.76h-19.24C528.65,68.63,525.03,65,525.03,57.73z"/>
	<path d="M576.24,68.63c-7.11,0-10.66-3.52-10.66-10.56s3.55-10.56,10.66-10.56h11.7v-5.04c0-2.67-1.34-4-4.01-4h-14.81v-3.52
		l3.18-2.35h11.76c7.06,0,10.59,3.52,10.59,10.56v25.46H576.24z M572.29,58.69c0,2.71,1.36,4.07,4.08,4.07h11.56v-10h-11.56
		c-2.72,0-4.08,1.36-4.08,4.07V58.69z"/>
	<path d="M605.16,82.43V32.61h19.58c7.06,0,10.59,3.52,10.59,10.56V58c0,7.08-3.53,10.63-10.59,10.63h-12.87v13.8H605.16z
		 M611.88,62.76h12.73c2.67,0,4.01-1.36,4.01-4.07V42.48c0-2.67-1.34-4-4.01-4h-12.73V62.76z"/>
	<path d="M645.3,26.13v-7.31h7.2v7.31H645.3z M645.58,68.63V32.61h6.71v36.02H645.58z"/>
	<path d="M662.81,58V21.02h6.71v11.59h12.8v5.87h-12.8v20.22c0,2.71,1.36,4.07,4.08,4.07h9.41v3.52l-3.18,2.35h-6.44
		C666.34,68.63,662.81,65.09,662.81,58z"/>
	<path d="M699.62,68.63c-7.11,0-10.66-3.52-10.66-10.56s3.55-10.56,10.66-10.56h11.7v-5.04c0-2.67-1.34-4-4.01-4H692.5v-3.52
		l3.18-2.35h11.76c7.06,0,10.59,3.52,10.59,10.56v25.46H699.62z M695.68,58.69c0,2.71,1.36,4.07,4.08,4.07h11.56v-10h-11.56
		c-2.72,0-4.08,1.36-4.08,4.07V58.69z"/>
	<path d="M728.27,57.8V17.57h6.71v40.92c0,3.08,1.57,4.72,4.71,4.9v5.87C732.08,69.25,728.27,65.43,728.27,57.8z"/>
</g>
</svg>
